

<svg version="1.1"
     width="500" height="600"
     xmlns="http://www.w3.org/2000/svg">

    <polyline points="150,150 170,40 310,40 340,150 430, 150" fill="red" stroke="red" stroke-width="5"/>

    <g transform="scale(10,5) translate(20,15.5)">
        <rect width="10" height="10">
    <animate
      attributeName="rx"
      values="0;5;0"
      dur="5s"
      repeatCount="indefinite" />
  </rect>

    </g>

    <text x="250" y="110" font-size="20" 
    text-anchor="middle" fill="white">GAP</text>

    <polygon points="150,150 340,150 420,280 340,450 150,450 80,280" fill="#eebb99" />

    <line x1="170" y1="190" x2="220" y2="180" stroke="black" stroke-width="5px"/>
    <line x1="270" y1="180" x2="320" y2="190" stroke="black" stroke-width="5px"/>
   
    <ellipse cx="195" cy="230" rx="25" ry="10" fill="white" stroke="black"/>
    <circle cx="195" cy="230" r="10" fill="#442222" />
    <ellipse cx="300" cy="230" rx="25" ry="10" fill="white" stroke="black"/>
    <circle cx="300" cy="230" r="10" fill="#442222" />

     <g transform="translate(190,220)">
       <polygon points="60,30 90,90 30,90">
            <animateTransform
            attributeName="transform" attributeType="XML"
            type="rotate"
            from="0 60 70" to="360 60 70"
            dur="10s" repeatCount="indefinite" />
        </polygon>
    </g>

    <g transform="translate(185,220)">
        <path d="M -50 120 C -10 30, 25 170, 25 100 S 50 150, 60 120" stroke="black" stroke-width="5" fill="transparent"/>
        <!-- <path d="M 10 80 C 40 10, 65 10, 95 80 S 150 150, 180 80" stroke="black" fill="transparent"/> -->
    </g>

    <g transform="translate(315,220) scale(-1,1)" >
        <path d="M -50 120 C -10 30, 25 170, 25 100 S 50 150, 60 120" stroke="black" stroke-width="5" fill="transparent"/>
        <!-- <path d="M 10 80 C 40 10, 65 10, 95 80 S 150 150, 180 80" stroke="black" fill="transparent"/> -->
    </g>

    <g transform="translate(150,400)">
        <path fill="blue" stroke="lightgrey"
    d="M20,50 C20,-50 180,150 180,50 C180-50 20,150 20,50 z" />
    
    <circle r="5" fill="red">
        <animateMotion dur="10s" repeatCount="indefinite"
        path="M20,50 C20,-50 180,150 180,50 C180-50 20,150 20,50 z" />
    </circle>
    </g>

    <g transform="translate(100,300)">
        <path d="M 130 110 C 120 140, 180 140, 170 110" stroke="black" fill="transparent"/>
    </g>

    <g transform="translate(100,370)">
        <path d="M 80 -20 C 120 40, 180 40, 220 -20" stroke="black" fill="black"/>
    </g>


    
   

 
 

    

    

    
    
</svg>
