{
  "accessors": [
    {
      "bufferView": 2,
      "componentType": 5126,
      "count": 1233,
      "max": [
        5.684147834777832,
        8.235013008117676,
        114.8326187133789
      ],
      "min": [
        -5.6791839599609375,
        -6.008513927459717,
        98.70926666259766
      ],
      "type": "VEC3"
    },
    {
      "bufferView": 2,
      "byteOffset": 14796,
      "componentType": 5126,
      "count": 1233,
      "max": [
        0.999708354473114,
        0.9909003376960754,
        0.9999032020568848
      ],
      "min": [
        -0.9997243285179138,
        -0.9993162155151367,
        -0.9982896447181702
      ],
      "type": "VEC3"
    },
    {
      "bufferView": 1,
      "componentType": 5126,
      "count": 1233,
      "max": [
        -15.00927734375,
        16.997411727905273
      ],
      "min": [
        -15.997308731079102,
        16.00244140625
      ],
      "type": "VEC2"
    },
    {
      "bufferView": 0,
      "componentType": 5125,
      "count": 6006,
      "type": "SCALAR"
    },
    {
      "bufferView": 2,
      "byteOffset": 29592,
      "componentType": 5126,
      "count": 2981,
      "max": [
        6.18336820602417,
        8.412115097045898,
        113.84912872314453
      ],
      "min": [
        -6.177789211273193,
        -5.613142013549805,
        96.89651489257813
      ],
      "type": "VEC3"
    },
    {
      "bufferView": 2,
      "byteOffset": 65364,
      "componentType": 5126,
      "count": 2981,
      "max": [
        0.9997261166572571,
        0.9992390275001526,
        1.0
      ],
      "min": [
        -0.9997238516807556,
        -0.9999148845672607,
        -1.0
      ],
      "type": "VEC3"
    },
    {
      "bufferView": 1,
      "byteOffset": 9864,
      "componentType": 5126,
      "count": 2981,
      "max": [
        -15.00830078125,
        16.997434616088867
      ],
      "min": [
        -15.995255470275879,
        16.1650390625
      ],
      "type": "VEC2"
    },
    {
      "bufferView": 0,
      "byteOffset": 24024,
      "componentType": 5125,
      "count": 15732,
      "type": "SCALAR"
    },
    {
      "bufferView": 2,
      "byteOffset": 101136,
      "componentType": 5126,
      "count": 7250,
      "max": [
        35.74473571777344,
        11.01617431640625,
        76.8676986694336
      ],
      "min": [
        -35.746070861816406,
        -8.596441268920898,
        46.66374206542969
      ],
      "type": "VEC3"
    },
    {
      "bufferView": 2,
      "byteOffset": 188136,
      "componentType": 5126,
      "count": 7250,
      "max": [
        0.9999728202819824,
        0.9998708963394165,
        0.9999345541000366
      ],
      "min": [
        -0.9998980760574341,
        -0.9997127652168274,
        -0.9965965151786804
      ],
      "type": "VEC3"
    },
    {
      "bufferView": 1,
      "byteOffset": 33712,
      "componentType": 5126,
      "count": 7250,
      "max": [
        -15.00537109375,
        16.995243072509766
      ],
      "min": [
        -15.99484634399414,
        16.00634765625
      ],
      "type": "VEC2"
    },
    {
      "bufferView": 0,
      "byteOffset": 86952,
      "componentType": 5125,
      "count": 31326,
      "type": "SCALAR"
    },
    {
      "bufferView": 2,
      "byteOffset": 275136,
      "componentType": 5126,
      "count": 172,
      "max": [
        35.81752014160156,
        -0.5354120135307312,
        56.27777099609375
      ],
      "min": [
        -35.818199157714844,
        -2.169114112854004,
        54.2687873840332
      ],
      "type": "VEC3"
    },
    {
      "bufferView": 2,
      "byteOffset": 277200,
      "componentType": 5126,
      "count": 172,
      "max": [
        0.989014744758606,
        0.9655287861824036,
        0.9650039076805115
      ],
      "min": [
        -0.9966710209846497,
        -0.9576979875564575,
        -0.9391101002693176
      ],
      "type": "VEC3"
    },
    {
      "bufferView": 1,
      "byteOffset": 91712,
      "componentType": 5126,
      "count": 172,
      "max": [
        -15.94097900390625,
        16.725830078125
      ],
      "min": [
        -15.9925537109375,
        16.638671875
      ],
      "type": "VEC2"
    },
    {
      "bufferView": 0,
      "byteOffset": 212256,
      "componentType": 5125,
      "count": 828,
      "type": "SCALAR"
    },
    {
      "bufferView": 2,
      "byteOffset": 279264,
      "componentType": 5126,
      "count": 134,
      "max": [
        34.873512268066406,
        1.8484090566635132,
        55.778018951416016
      ],
      "min": [
        -34.87306213378906,
        0.2846989929676056,
        53.53413009643555
      ],
      "type": "VEC3"
    },
    {
      "bufferView": 2,
      "byteOffset": 280872,
      "componentType": 5126,
      "count": 134,
      "max": [
        0.9998381733894348,
        0.9799584150314331,
        0.9892850518226624
      ],
      "min": [
        -0.9987189769744873,
        -0.9382396936416626,
        -0.9523534774780273
      ],
      "type": "VEC3"
    },
    {
      "bufferView": 1,
      "byteOffset": 93088,
      "componentType": 5126,
      "count": 134,
      "max": [
        -15.91162109375,
        16.54833984375
      ],
      "min": [
        -15.994773864746094,
        16.48828125
      ],
      "type": "VEC2"
    },
    {
      "bufferView": 0,
      "byteOffset": 215568,
      "componentType": 5125,
      "count": 624,
      "type": "SCALAR"
    },
    {
      "bufferView": 2,
      "byteOffset": 282480,
      "componentType": 5126,
      "count": 86,
      "max": [
        34.90275192260742,
        -5.540894031524658,
        58.017059326171875
      ],
      "min": [
        -34.906009674072266,
        -7.092175006866455,
        56.04021072387695
      ],
      "type": "VEC3"
    },
    {
      "bufferView": 2,
      "byteOffset": 283512,
      "componentType": 5126,
      "count": 86,
      "max": [
        0.9789146184921265,
        0.9608196020126343,
        0.907493531703949
      ],
      "min": [
        -0.9811976552009583,
        -0.9675223231315613,
        -0.9721685647964478
      ],
      "type": "VEC3"
    },
    {
      "bufferView": 1,
      "byteOffset": 94160,
      "componentType": 5126,
      "count": 86,
      "max": [
        -15.9306640625,
        16.631591796875
      ],
      "min": [
        -15.991897583007813,
        16.5576171875
      ],
      "type": "VEC2"
    },
    {
      "bufferView": 0,
      "byteOffset": 218064,
      "componentType": 5125,
      "count": 384,
      "type": "SCALAR"
    },
    {
      "bufferView": 2,
      "byteOffset": 284544,
      "componentType": 5126,
      "count": 198,
      "max": [
        36.11659622192383,
        0.4586780071258545,
        61.36249923706055
      ],
      "min": [
        -36.11466598510742,
        -3.10970401763916,
        57.19792938232422
      ],
      "type": "VEC3"
    },
    {
      "bufferView": 2,
      "byteOffset": 286920,
      "componentType": 5126,
      "count": 198,
      "max": [
        0.9980822801589966,
        0.9947885870933533,
        0.9296305775642395
      ],
      "min": [
        -0.999239981174469,
        -0.9641026258468628,
        -0.9368084669113159
      ],
      "type": "VEC3"
    },
    {
      "bufferView": 1,
      "byteOffset": 94848,
      "componentType": 5126,
      "count": 198,
      "max": [
        -15.834716796875,
        16.728515625
      ],
      "min": [
        -15.93231201171875,
        16.53564453125
      ],
      "type": "VEC2"
    },
    {
      "bufferView": 0,
      "byteOffset": 219600,
      "componentType": 5125,
      "count": 948,
      "type": "SCALAR"
    },
    {
      "bufferView": 2,
      "byteOffset": 289296,
      "componentType": 5126,
      "count": 90,
      "max": [
        35.873817443847656,
        -3.08912992477417,
        57.051544189453125
      ],
      "min": [
        -35.87567138671875,
        -4.650444030761719,
        55.084598541259766
      ],
      "type": "VEC3"
    },
    {
      "bufferView": 2,
      "byteOffset": 290376,
      "componentType": 5126,
      "count": 90,
      "max": [
        0.9908910989761353,
        0.9460991024971008,
        0.9786191582679749
      ],
      "min": [
        -0.991004467010498,
        -0.9913761019706726,
        -0.9686446785926819
      ],
      "type": "VEC3"
    },
    {
      "bufferView": 1,
      "byteOffset": 96432,
      "componentType": 5126,
      "count": 90,
      "max": [
        -15.834716796875,
        16.53125
      ],
      "min": [
        -15.90252685546875,
        16.47802734375
      ],
      "type": "VEC2"
    },
    {
      "bufferView": 0,
      "byteOffset": 223392,
      "componentType": 5125,
      "count": 420,
      "type": "SCALAR"
    },
    {
      "bufferView": 2,
      "byteOffset": 291456,
      "componentType": 5126,
      "count": 90,
      "max": [
        28.832502365112305,
        -6.233179092407227,
        61.82830810546875
      ],
      "min": [
        -28.838903427124023,
        -8.17498779296875,
        59.37834167480469
      ],
      "type": "VEC3"
    },
    {
      "bufferView": 2,
      "byteOffset": 292536,
      "componentType": 5126,
      "count": 90,
      "max": [
        0.9841630458831787,
        0.9188125729560852,
        0.9984416365623474
      ],
      "min": [
        -0.9521682262420654,
        -0.9937108159065247,
        -0.8967857360839844
      ],
      "type": "VEC3"
    },
    {
      "bufferView": 1,
      "byteOffset": 97152,
      "componentType": 5126,
      "count": 90,
      "max": [
        -15.7412109375,
        16.56201171875
      ],
      "min": [
        -15.8353271484375,
        16.4658203125
      ],
      "type": "VEC2"
    },
    {
      "bufferView": 0,
      "byteOffset": 225072,
      "componentType": 5125,
      "count": 432,
      "type": "SCALAR"
    },
    {
      "bufferView": 2,
      "byteOffset": 293616,
      "componentType": 5126,
      "count": 9937,
      "max": [
        34.53556442260742,
        18.46392059326172,
        106.39713287353516
      ],
      "min": [
        -34.536827087402344,
        -10.574493408203125,
        -0.15481600165367126
      ],
      "type": "VEC3"
    },
    {
      "bufferView": 2,
      "byteOffset": 412860,
      "componentType": 5126,
      "count": 9937,
      "max": [
        0.9999836683273315,
        0.9998875856399536,
        0.999985933303833
      ],
      "min": [
        -0.9998698234558105,
        -0.9999783039093018,
        -0.9999998807907104
      ],
      "type": "VEC3"
    },
    {
      "bufferView": 1,
      "byteOffset": 97872,
      "componentType": 5126,
      "count": 9937,
      "max": [
        -15.001953125,
        16.99838638305664
      ],
      "min": [
        -16.000221252441406,
        16.0009765625
      ],
      "type": "VEC2"
    },
    {
      "bufferView": 0,
      "byteOffset": 226800,
      "componentType": 5125,
      "count": 50814,
      "type": "SCALAR"
    }
  ],
  "asset": {
    "extras": {
      "author": "Fortnite re-uploaded (https://sketchfab.com/muhamedataman032)",
      "license": "CC-BY-4.0 (http://creativecommons.org/licenses/by/4.0/)",
      "source": "https://sketchfab.com/3d-models/fortnite-thanos-1ad8e412639d4bd78bef9c3ea72b502c",
      "title": "Fortnite-Thanos"
    },
    "generator": "Sketchfab-12.68.0",
    "version": "2.0"
  },
  "bufferViews": [
    {
      "buffer": 0,
      "byteLength": 430056,
      "name": "floatBufferViews",
      "target": 34963
    },
    {
      "buffer": 0,
      "byteLength": 177368,
      "byteOffset": 430056,
      "byteStride": 8,
      "name": "floatBufferViews",
      "target": 34962
    },
    {
      "buffer": 0,
      "byteLength": 532104,
      "byteOffset": 607424,
      "byteStride": 12,
      "name": "floatBufferViews",
      "target": 34962
    }
  ],
  "buffers": [
    {
      "byteLength": 1139528,
      "uri": "scene.bin"
    }
  ],
  "images": [
    {
      "uri": "textures/gauntlet_metal_baseColor.png"
    },
    {
      "uri": "textures/thanos_body_baseColor.png"
    },
    {
      "uri": "textures/thanos_head_baseColor.png"
    },
    {
      "uri": "textures/thanos_helmet_baseColor.png"
    }
  ],
  "materials": [
    {
      "doubleSided": true,
      "name": "gauntlet_metal",
      "pbrMetallicRoughness": {
        "baseColorTexture": {
          "index": 0
        },
        "roughnessFactor": 0.6
      }
    },
    {
      "doubleSided": true,
      "name": "gauntlet_mind_stone",
      "pbrMetallicRoughness": {
        "baseColorTexture": {
          "index": 0
        },
        "metallicFactor": 0.0,
        "roughnessFactor": 0.6
      }
    },
    {
      "doubleSided": true,
      "name": "gauntlet_power_stone",
      "pbrMetallicRoughness": {
        "baseColorTexture": {
          "index": 0
        },
        "metallicFactor": 0.0,
        "roughnessFactor": 0.6
      }
    },
    {
      "doubleSided": true,
      "name": "gauntlet_reality_stone",
      "pbrMetallicRoughness": {
        "baseColorTexture": {
          "index": 0
        },
        "metallicFactor": 0.0,
        "roughnessFactor": 0.6
      }
    },
    {
      "doubleSided": true,
      "name": "gauntlet_soul_stone",
      "pbrMetallicRoughness": {
        "baseColorTexture": {
          "index": 0
        },
        "metallicFactor": 0.0,
        "roughnessFactor": 0.6
      }
    },
    {
      "doubleSided": true,
      "name": "gauntlet_space_stone",
      "pbrMetallicRoughness": {
        "baseColorTexture": {
          "index": 0
        },
        "metallicFactor": 0.0,
        "roughnessFactor": 0.6
      }
    },
    {
      "doubleSided": true,
      "name": "gauntlet_time_stone",
      "pbrMetallicRoughness": {
        "baseColorTexture": {
          "index": 0
        },
        "metallicFactor": 0.0,
        "roughnessFactor": 0.6
      }
    },
    {
      "doubleSided": true,
      "name": "thanos_body",
      "pbrMetallicRoughness": {
        "baseColorTexture": {
          "index": 1
        },
        "roughnessFactor": 0.6
      }
    },
    {
      "doubleSided": true,
      "name": "thanos_head",
      "pbrMetallicRoughness": {
        "baseColorTexture": {
          "index": 2
        },
        "metallicFactor": 0.0,
        "roughnessFactor": 0.6
      }
    },
    {
      "doubleSided": true,
      "name": "thanos_helmet",
      "pbrMetallicRoughness": {
        "baseColorTexture": {
          "index": 3
        },
        "roughnessFactor": 0.6
      }
    }
  ],
  "meshes": [
    {
      "name": "Object_0",
      "primitives": [
        {
          "attributes": {
            "NORMAL": 1,
            "POSITION": 0,
            "TEXCOORD_0": 2
          },
          "indices": 3,
          "material": 9,
          "mode": 4
        }
      ]
    },
    {
      "name": "Object_1",
      "primitives": [
        {
          "attributes": {
            "NORMAL": 5,
            "POSITION": 4,
            "TEXCOORD_0": 6
          },
          "indices": 7,
          "material": 8,
          "mode": 4
        }
      ]
    },
    {
      "name": "Object_2",
      "primitives": [
        {
          "attributes": {
            "NORMAL": 9,
            "POSITION": 8,
            "TEXCOORD_0": 10
          },
          "indices": 11,
          "material": 0,
          "mode": 4
        }
      ]
    },
    {
      "name": "Object_3",
      "primitives": [
        {
          "attributes": {
            "NORMAL": 13,
            "POSITION": 12,
            "TEXCOORD_0": 14
          },
          "indices": 15,
          "material": 3,
          "mode": 4
        }
      ]
    },
    {
      "name": "Object_4",
      "primitives": [
        {
          "attributes": {
            "NORMAL": 17,
            "POSITION": 16,
            "TEXCOORD_0": 18
          },
          "indices": 19,
          "material": 4,
          "mode": 4
        }
      ]
    },
    {
      "name": "Object_5",
      "primitives": [
        {
          "attributes": {
            "NORMAL": 21,
            "POSITION": 20,
            "TEXCOORD_0": 22
          },
          "indices": 23,
          "material": 2,
          "mode": 4
        }
      ]
    },
    {
      "name": "Object_6",
      "primitives": [
        {
          "attributes": {
            "NORMAL": 25,
            "POSITION": 24,
            "TEXCOORD_0": 26
          },
          "indices": 27,
          "material": 1,
          "mode": 4
        }
      ]
    },
    {
      "name": "Object_7",
      "primitives": [
        {
          "attributes": {
            "NORMAL": 29,
            "POSITION": 28,
            "TEXCOORD_0": 30
          },
          "indices": 31,
          "material": 5,
          "mode": 4
        }
      ]
    },
    {
      "name": "Object_8",
      "primitives": [
        {
          "attributes": {
            "NORMAL": 33,
            "POSITION": 32,
            "TEXCOORD_0": 34
          },
          "indices": 35,
          "material": 6,
          "mode": 4
        }
      ]
    },
    {
      "name": "Object_9",
      "primitives": [
        {
          "attributes": {
            "NORMAL": 37,
            "POSITION": 36,
            "TEXCOORD_0": 38
          },
          "indices": 39,
          "material": 7,
          "mode": 4
        }
      ]
    }
  ],
  "nodes": [
    {
      "children": [
        1
      ],
      "matrix": [
        1.0,
        0.0,
        0.0,
        0.0,
        0.0,
        2.220446049250313e-16,
        -1.0,
        0.0,
        0.0,
        1.0,
        2.220446049250313e-16,
        0.0,
        0.0,
        0.0,
        0.0,
        1.0
      ],
      "name": "Sketchfab_model"
    },
    {
      "children": [
        2,
        3,
        4,
        5,
        6,
        7,
        8,
        9,
        10,
        11
      ],
      "name": "anos.obj.cleaner.materialmerger.gles"
    },
    {
      "mesh": 0,
      "name": "Object_2"
    },
    {
      "mesh": 1,
      "name": "Object_3"
    },
    {
      "mesh": 2,
      "name": "Object_4"
    },
    {
      "mesh": 3,
      "name": "Object_5"
    },
    {
      "mesh": 4,
      "name": "Object_6"
    },
    {
      "mesh": 5,
      "name": "Object_7"
    },
    {
      "mesh": 6,
      "name": "Object_8"
    },
    {
      "mesh": 7,
      "name": "Object_9"
    },
    {
      "mesh": 8,
      "name": "Object_10"
    },
    {
      "mesh": 9,
      "name": "Object_11"
    }
  ],
  "samplers": [
    {
      "magFilter": 9729,
      "minFilter": 9987,
      "wrapS": 10497,
      "wrapT": 10497
    }
  ],
  "scene": 0,
  "scenes": [
    {
      "name": "Sketchfab_Scene",
      "nodes": [
        0
      ]
    }
  ],
  "textures": [
    {
      "sampler": 0,
      "source": 0
    },
    {
      "sampler": 0,
      "source": 1
    },
    {
      "sampler": 0,
      "source": 2
    },
    {
      "sampler": 0,
      "source": 3
    }
  ]
}
